<?xml version="1.0" encoding="UTF-8"?>
<svg width="76px" height="23px" viewBox="0 0 76 23" version="1.1" xmlns="http://www.w3.org/2000/svg" xmlns:xlink="http://www.w3.org/1999/xlink">
    <!-- Generator: Sketch 52.4 (67378) - http://www.bohemiancoding.com/sketch -->
    <title>Group 3</title>
    <desc>Created with Sketch.</desc>
    <defs>
        <linearGradient x1="0%" y1="0%" x2="100%" y2="100%" id="linearGradient-1">
            <stop stop-color="#4B5AF4" offset="0%"></stop>
            <stop stop-color="#5239CD" offset="100%"></stop>
        </linearGradient>
    </defs>
    <g id="Page-1" stroke="none" stroke-width="1" fill="none" fill-rule="evenodd">
        <g id="01---Home" transform="translate(-108.000000, -79.000000)">
            <g id="Group-3" transform="translate(108.000000, 79.000000)">
                <path d="M42.056,16.376 C42.3200013,16.376 42.5209993,16.4389994 42.659,16.565 C42.7970007,16.6910006 42.866,16.8619989 42.866,17.078 C42.866,17.2940011 42.7970007,17.4649994 42.659,17.591 C42.5209993,17.7170006 42.3200013,17.78 42.056,17.78 L35.9,17.78 C35.6359987,17.78 35.4260008,17.7050007 35.27,17.555 C35.1139992,17.4049993 35.036,17.2160011 35.036,16.988 C35.036,16.7599989 35.1259991,16.5380011 35.306,16.322 L40.31,10.4 L35.792,10.4 C35.5399987,10.4 35.3450007,10.3370006 35.207,10.211 C35.0689993,10.0849994 35,9.91400108 35,9.698 C35,9.48199892 35.0689993,9.31100063 35.207,9.185 C35.3450007,9.05899937 35.5399987,8.996 35.792,8.996 L41.768,8.996 C42.0200013,8.996 42.2269992,9.07399922 42.389,9.23 C42.5510008,9.38600078 42.632,9.57199892 42.632,9.788 C42.632,10.0160011 42.5420009,10.2379989 42.362,10.454 L37.358,16.376 L42.056,16.376 Z M49.391,8.78 C50.5550058,8.78 51.4219971,9.07399706 51.992,9.662 C52.5620028,10.2500029 52.847,11.143994 52.847,12.344 L52.847,17.006 C52.847,17.2820014 52.7690008,17.4949992 52.613,17.645 C52.4569992,17.7950007 52.2410014,17.87 51.965,17.87 C51.7009987,17.87 51.4910008,17.7920008 51.335,17.636 C51.1789992,17.4799992 51.101,17.2700013 51.101,17.006 L51.101,16.34 C50.8729989,16.8440025 50.5340023,17.2309987 50.084,17.501 C49.6339977,17.7710014 49.109003,17.906 48.509,17.906 C47.9329971,17.906 47.4050024,17.7890012 46.925,17.555 C46.4449976,17.3209988 46.0700013,16.9940021 45.8,16.574 C45.5299986,16.1539979 45.395,15.6860026 45.395,15.17 C45.395,14.5339968 45.5599984,14.0330018 45.89,13.667 C46.2200017,13.3009982 46.7659962,13.0400008 47.528,12.884 C48.2900038,12.7279992 49.3369933,12.65 50.669,12.65 L51.083,12.65 L51.083,12.128 C51.083,11.4559966 50.9450014,10.9700015 50.669,10.67 C50.3929986,10.3699985 49.9490031,10.22 49.337,10.22 C48.9169979,10.22 48.5210019,10.2739995 48.149,10.382 C47.7769981,10.4900005 47.3690022,10.645999 46.925,10.85 C46.6009984,11.0300009 46.3730007,11.12 46.241,11.12 C46.0609991,11.12 45.9140006,11.0540007 45.8,10.922 C45.6859994,10.7899993 45.629,10.622001 45.629,10.418 C45.629,10.2379991 45.6799995,10.0790007 45.782,9.941 C45.8840005,9.80299931 46.0489989,9.66800066 46.277,9.536 C46.6970021,9.30799886 47.1889972,9.12500069 47.753,8.987 C48.3170028,8.84899931 48.8629974,8.78 49.391,8.78 Z M48.833,16.556 C49.4930033,16.556 50.0329979,16.3310023 50.453,15.881 C50.8730021,15.4309978 51.083,14.8520035 51.083,14.144 L51.083,13.676 L50.759,13.676 C49.8229953,13.676 49.1030025,13.7179996 48.599,13.802 C48.0949975,13.8860004 47.7350011,14.026999 47.519,14.225 C47.3029989,14.423001 47.195,14.7079981 47.195,15.08 C47.195,15.5120022 47.3509984,15.8659986 47.663,16.142 C47.9750016,16.4180014 48.3649977,16.556 48.833,16.556 Z M61.208,8.78 C63.2960104,8.78 64.34,9.96198818 64.34,12.326 L64.34,17.006 C64.34,17.2700013 64.2560008,17.4799992 64.088,17.636 C63.9199992,17.7920008 63.6980014,17.87 63.422,17.87 C63.1459986,17.87 62.9270008,17.7920008 62.765,17.636 C62.6029992,17.4799992 62.522,17.2700013 62.522,17.006 L62.522,12.344 C62.522,11.6239964 62.3750015,11.0960017 62.081,10.76 C61.7869985,10.4239983 61.3280031,10.256 60.704,10.256 C59.9719963,10.256 59.3840022,10.4839977 58.94,10.94 C58.4959978,11.3960023 58.274,12.0079962 58.274,12.776 L58.274,17.006 C58.274,17.2700013 58.1930008,17.4799992 58.031,17.636 C57.8689992,17.7920008 57.6500014,17.87 57.374,17.87 C57.0979986,17.87 56.8760008,17.7920008 56.708,17.636 C56.5399992,17.4799992 56.456,17.2700013 56.456,17.006 L56.456,5.864 C56.456,5.59999868 56.5429991,5.39000078 56.717,5.234 C56.8910009,5.07799922 57.1159986,5 57.392,5 C57.6560013,5 57.8689992,5.07499925 58.031,5.225 C58.1930008,5.37500075 58.274,5.57599874 58.274,5.828 L58.274,10.328 C58.5740015,9.82399748 58.9759975,9.44000132 59.48,9.176 C59.9840025,8.91199868 60.5599968,8.78 61.208,8.78 Z M71.639,8.78 C72.8030058,8.78 73.6699972,9.07399706 74.24,9.662 C74.8100029,10.2500029 75.095,11.143994 75.095,12.344 L75.095,17.006 C75.095,17.2820014 75.0170008,17.4949992 74.861,17.645 C74.7049992,17.7950007 74.4890014,17.87 74.213,17.87 C73.9489987,17.87 73.7390008,17.7920008 73.583,17.636 C73.4269992,17.4799992 73.349,17.2700013 73.349,17.006 L73.349,16.34 C73.1209989,16.8440025 72.7820023,17.2309987 72.332,17.501 C71.8819978,17.7710014 71.357003,17.906 70.757,17.906 C70.1809971,17.906 69.6530024,17.7890012 69.173,17.555 C68.6929976,17.3209988 68.3180014,16.9940021 68.048,16.574 C67.7779987,16.1539979 67.643,15.6860026 67.643,15.17 C67.643,14.5339968 67.8079984,14.0330018 68.138,13.667 C68.4680017,13.3009982 69.0139962,13.0400008 69.776,12.884 C70.5380038,12.7279992 71.5849933,12.65 72.917,12.65 L73.331,12.65 L73.331,12.128 C73.331,11.4559966 73.1930014,10.9700015 72.917,10.67 C72.6409986,10.3699985 72.1970031,10.22 71.585,10.22 C71.1649979,10.22 70.7690019,10.2739995 70.397,10.382 C70.0249981,10.4900005 69.6170022,10.645999 69.173,10.85 C68.8489984,11.0300009 68.6210007,11.12 68.489,11.12 C68.3089991,11.12 68.1620006,11.0540007 68.048,10.922 C67.9339994,10.7899993 67.877,10.622001 67.877,10.418 C67.877,10.2379991 67.9279995,10.0790007 68.03,9.941 C68.1320005,9.80299931 68.2969989,9.66800066 68.525,9.536 C68.9450021,9.30799886 69.4369972,9.12500069 70.001,8.987 C70.5650028,8.84899931 71.1109974,8.78 71.639,8.78 Z M71.081,16.556 C71.7410033,16.556 72.2809979,16.3310023 72.701,15.881 C73.1210021,15.4309978 73.331,14.8520035 73.331,14.144 L73.331,13.676 L73.007,13.676 C72.0709953,13.676 71.3510025,13.7179996 70.847,13.802 C70.3429975,13.8860004 69.9830011,14.026999 69.767,14.225 C69.5509989,14.423001 69.443,14.7079981 69.443,15.08 C69.443,15.5120022 69.5989984,15.8659986 69.911,16.142 C70.2230016,16.4180014 70.6129977,16.556 71.081,16.556 Z" id="zaha" fill="#1E3056"></path>
                <g id="Group-6" fill-rule="nonzero">
                    <path d="M8,0 L17,0 C18.1045695,-2.02906125e-16 19,0.8954305 19,2 L19,11 C19,15.418278 15.418278,19 11,19 L2,19 C0.8954305,19 1.3527075e-16,18.1045695 0,17 L0,8 C-5.41083001e-16,3.581722 3.581722,8.11624501e-16 8,0 Z" id="Rectangle" fill="#4E47DE" opacity="0.511788504"></path>
                    <path d="M14,4 L23,4 C24.1045695,4 25,4.8954305 25,6 L25,15 C25,19.418278 21.418278,23 17,23 L8,23 C6.8954305,23 6,22.1045695 6,21 L6,12 C6,7.581722 9.581722,4 14,4 Z" id="Rectangle-Copy-3" fill="url(#linearGradient-1)"></path>
                </g>
            </g>
        </g>
    </g>
</svg>